<?xml version='1.0' encoding='UTF-8' standalone='no'?>
<!-- Created with Fritzing (https://fritzing.org/) -->
<svg xmlns="http://www.w3.org/2000/svg" y="0in" width="1.74596in" baseProfile="tiny" x="0in" xmlns:svg="http://www.w3.org/2000/svg"  height="3.16757in" viewBox="0 0 125.709 228.065" version="1.2">
 <g partID="854719110">
  <g  id="board">
   <rect stroke="black" stroke-width="0.5" y="0.288" width="125.133" x="0.288"  height="227.489" id="boardoutline" fill-opacity="0.5" fill="none"/>
  </g>
 </g>
 <g partID="854719290">
  <g transform="translate(60.9155,82.5197)">
   <g transform="matrix(0,1,-1,0,0,0)">
    <g  id="copper0">
     <circle r="1.512" stroke="black" stroke-width="0.72" connectorname="1"  cy="25.344" cx="4.032" id="connector0pad" fill="none"/>
     <path stroke="none" stroke-width="0" d="m4.032,21.6a1.872,1.872,0,0,1,1.872,1.872l0,3.744a1.872,1.872,0,0,1,-1.872,1.872l0,0a1.872,1.872,0,0,1,-1.872,-1.872l0,-3.744a1.872,1.872,0,0,1,1.872,-1.872l0,0zM2.88,25.344a1.152,1.152,0,1,0,2.304,0,1.152,1.152,0,1,0,-2.304,0z"  fill="black"/>
     <circle r="1.512" stroke="black" stroke-width="0.72" connectorname="2"  cy="25.344" cx="11.232" id="connector1pad" fill="none"/>
     <path stroke="none" stroke-width="0" d="m11.232,21.6a1.872,1.872,0,0,1,1.872,1.872l0,3.744a1.872,1.872,0,0,1,-1.872,1.872l0,0a1.872,1.872,0,0,1,-1.872,-1.872l0,-3.744a1.872,1.872,0,0,1,1.872,-1.872l0,0zM10.08,25.344a1.152,1.152,0,1,0,2.304,0,1.152,1.152,0,1,0,-2.304,0z"  fill="black"/>
     <circle r="1.512" stroke="black" stroke-width="0.72" connectorname="3"  cy="25.344" cx="18.432" id="connector2pad" fill="none"/>
     <path stroke="none" stroke-width="0" d="m18.432,21.6a1.872,1.872,0,0,1,1.872,1.872l0,3.744a1.872,1.872,0,0,1,-1.872,1.872l0,0a1.872,1.872,0,0,1,-1.872,-1.872l0,-3.744a1.872,1.872,0,0,1,1.872,-1.872l0,0zM17.28,25.344a1.152,1.152,0,1,0,2.304,0,1.152,1.152,0,1,0,-2.304,0z"  fill="black"/>
     <circle r="1.512" stroke="black" stroke-width="0.72" connectorname="4"  cy="25.344" cx="25.632" id="connector3pad" fill="none"/>
     <path stroke="none" stroke-width="0" d="m25.632,21.6a1.872,1.872,0,0,1,1.872,1.872l0,3.744a1.872,1.872,0,0,1,-1.872,1.872l0,0a1.872,1.872,0,0,1,-1.872,-1.872l0,-3.744a1.872,1.872,0,0,1,1.872,-1.872l0,0zM24.48,25.344a1.152,1.152,0,1,0,2.304,0,1.152,1.152,0,1,0,-2.304,0z"  fill="black"/>
     <circle r="1.512" stroke="black" stroke-width="0.72" connectorname="5"  cy="25.344" cx="32.832" id="connector4pad" fill="none"/>
     <path stroke="none" stroke-width="0" d="m32.832,21.6a1.872,1.872,0,0,1,1.872,1.872l0,3.744a1.872,1.872,0,0,1,-1.872,1.872l0,0a1.872,1.872,0,0,1,-1.872,-1.872l0,-3.744a1.872,1.872,0,0,1,1.872,-1.872l0,0zM31.68,25.344a1.152,1.152,0,1,0,2.304,0,1.152,1.152,0,1,0,-2.304,0z"  fill="black"/>
     <circle r="1.512" stroke="black" stroke-width="0.72" connectorname="6"  cy="25.344" cx="40.032" id="connector5pad" fill="none"/>
     <path stroke="none" stroke-width="0" d="m40.032,21.6a1.872,1.872,0,0,1,1.872,1.872l0,3.744a1.872,1.872,0,0,1,-1.872,1.872l0,0a1.872,1.872,0,0,1,-1.872,-1.872l0,-3.744a1.872,1.872,0,0,1,1.872,-1.872l0,0zM38.88,25.344a1.152,1.152,0,1,0,2.304,0,1.152,1.152,0,1,0,-2.304,0z"  fill="black"/>
     <circle r="1.512" stroke="black" stroke-width="0.72" connectorname="7"  cy="25.344" cx="47.232" id="connector6pad" fill="none"/>
     <path stroke="none" stroke-width="0" d="m47.232,21.6a1.872,1.872,0,0,1,1.872,1.872l0,3.744a1.872,1.872,0,0,1,-1.872,1.872l0,0a1.872,1.872,0,0,1,-1.872,-1.872l0,-3.744a1.872,1.872,0,0,1,1.872,-1.872l0,0zM46.08,25.344a1.152,1.152,0,1,0,2.304,0,1.152,1.152,0,1,0,-2.304,0z"  fill="black"/>
     <circle r="1.512" stroke="black" stroke-width="0.72" connectorname="8"  cy="25.344" cx="54.432" id="connector7pad" fill="none"/>
     <path stroke="none" stroke-width="0" d="m54.432,21.6a1.872,1.872,0,0,1,1.872,1.872l0,3.744a1.872,1.872,0,0,1,-1.872,1.872l0,0a1.872,1.872,0,0,1,-1.872,-1.872l0,-3.744a1.872,1.872,0,0,1,1.872,-1.872l0,0zM53.28,25.344a1.152,1.152,0,1,0,2.304,0,1.152,1.152,0,1,0,-2.304,0z"  fill="black"/>
     <circle r="1.512" stroke="black" stroke-width="0.72" connectorname="9"  cy="3.744" cx="54.432" id="connector8pad" fill="none"/>
     <path stroke="none" stroke-width="0" d="m54.432,0a1.872,1.872,0,0,1,1.872,1.872l0,3.744a1.872,1.872,0,0,1,-1.872,1.872l0,0a1.872,1.872,0,0,1,-1.872,-1.872l0,-3.744a1.872,1.872,0,0,1,1.872,-1.872l0,0zM53.28,3.744a1.152,1.152,0,1,0,2.304,0,1.152,1.152,0,1,0,-2.304,0z"  fill="black"/>
     <circle r="1.512" stroke="black" stroke-width="0.72" connectorname="10"  cy="3.744" cx="47.232" id="connector9pad" fill="none"/>
     <path stroke="none" stroke-width="0" d="m47.232,0a1.872,1.872,0,0,1,1.872,1.872l0,3.744a1.872,1.872,0,0,1,-1.872,1.872l0,0a1.872,1.872,0,0,1,-1.872,-1.872l0,-3.744a1.872,1.872,0,0,1,1.872,-1.872l0,0zM46.08,3.744a1.152,1.152,0,1,0,2.304,0,1.152,1.152,0,1,0,-2.304,0z"  fill="black"/>
     <circle r="1.512" stroke="black" stroke-width="0.72" connectorname="11"  cy="3.744" cx="40.032" id="connector10pad" fill="none"/>
     <path stroke="none" stroke-width="0" d="m40.032,0a1.872,1.872,0,0,1,1.872,1.872l0,3.744a1.872,1.872,0,0,1,-1.872,1.872l0,0a1.872,1.872,0,0,1,-1.872,-1.872l0,-3.744a1.872,1.872,0,0,1,1.872,-1.872l0,0zM38.88,3.744a1.152,1.152,0,1,0,2.304,0,1.152,1.152,0,1,0,-2.304,0z"  fill="black"/>
     <circle r="1.512" stroke="black" stroke-width="0.72" connectorname="12"  cy="3.744" cx="32.832" id="connector11pad" fill="none"/>
     <path stroke="none" stroke-width="0" d="m32.832,0a1.872,1.872,0,0,1,1.872,1.872l0,3.744a1.872,1.872,0,0,1,-1.872,1.872l0,0a1.872,1.872,0,0,1,-1.872,-1.872l0,-3.744a1.872,1.872,0,0,1,1.872,-1.872l0,0zM31.68,3.744a1.152,1.152,0,1,0,2.304,0,1.152,1.152,0,1,0,-2.304,0z"  fill="black"/>
     <circle r="1.512" stroke="black" stroke-width="0.72" connectorname="13"  cy="3.744" cx="25.632" id="connector12pad" fill="none"/>
     <path stroke="none" stroke-width="0" d="m25.632,0a1.872,1.872,0,0,1,1.872,1.872l0,3.744a1.872,1.872,0,0,1,-1.872,1.872l0,0a1.872,1.872,0,0,1,-1.872,-1.872l0,-3.744a1.872,1.872,0,0,1,1.872,-1.872l0,0zM24.48,3.744a1.152,1.152,0,1,0,2.304,0,1.152,1.152,0,1,0,-2.304,0z"  fill="black"/>
     <circle r="1.512" stroke="black" stroke-width="0.72" connectorname="14"  cy="3.744" cx="18.432" id="connector13pad" fill="none"/>
     <path stroke="none" stroke-width="0" d="m18.432,0a1.872,1.872,0,0,1,1.872,1.872l0,3.744a1.872,1.872,0,0,1,-1.872,1.872l0,0a1.872,1.872,0,0,1,-1.872,-1.872l0,-3.744a1.872,1.872,0,0,1,1.872,-1.872l0,0zM17.28,3.744a1.152,1.152,0,1,0,2.304,0,1.152,1.152,0,1,0,-2.304,0z"  fill="black"/>
     <circle r="1.512" stroke="black" stroke-width="0.72" connectorname="15"  cy="3.744" cx="11.232" id="connector14pad" fill="none"/>
     <path stroke="none" stroke-width="0" d="m11.232,0a1.872,1.872,0,0,1,1.872,1.872l0,3.744a1.872,1.872,0,0,1,-1.872,1.872l0,0a1.872,1.872,0,0,1,-1.872,-1.872l0,-3.744a1.872,1.872,0,0,1,1.872,-1.872l0,0zM10.08,3.744a1.152,1.152,0,1,0,2.304,0,1.152,1.152,0,1,0,-2.304,0z"  fill="black"/>
     <circle r="1.512" stroke="black" stroke-width="0.72" connectorname="16"  cy="3.744" cx="4.032" id="connector15pad" fill="none"/>
     <path stroke="none" stroke-width="0" d="m4.032,0a1.872,1.872,0,0,1,1.872,1.872l0,3.744a1.872,1.872,0,0,1,-1.872,1.872l0,0a1.872,1.872,0,0,1,-1.872,-1.872l0,-3.744a1.872,1.872,0,0,1,1.872,-1.872l0,0zM2.88,3.744a1.152,1.152,0,1,0,2.304,0,1.152,1.152,0,1,0,-2.304,0z"  fill="black"/>
    </g>
   </g>
  </g>
 </g>
 <g partID="854719630">
  <g transform="translate(8.93145,67.1117)">
   <g  gorn="0.2.0" id="copper0">
    <rect stroke="black" stroke-width="1.44" y="2.952" width="4.176" x="2.952"  height="4.176" gorn="0.2.0.0" id="square" fill="none"/>
    <circle r="2.088" stroke="black" stroke-width="1.44"  cy="5.04" cx="5.04" gorn="0.2.0.1" id="connector0pin" fill="none"/>
    <circle r="2.088" stroke="black" stroke-width="1.44"  cy="12.24" cx="5.04" gorn="0.2.0.2" id="connector1pin" fill="none"/>
    <circle r="2.088" stroke="black" stroke-width="1.44"  cy="19.44" cx="5.04" gorn="0.2.0.3" id="connector2pin" fill="none"/>
    <circle r="2.088" stroke="black" stroke-width="1.44"  cy="26.64" cx="5.04" gorn="0.2.0.4" id="connector3pin" fill="none"/>
    <circle r="2.088" stroke="black" stroke-width="1.44"  cy="33.84" cx="5.04" gorn="0.2.0.5" id="connector4pin" fill="none"/>
    <circle r="2.088" stroke="black" stroke-width="1.44"  cy="41.04" cx="5.04" gorn="0.2.0.6" id="connector5pin" fill="none"/>
   </g>
  </g>
 </g>
 <g partID="854720960">
  <g transform="translate(71.2827,20.0237)">
   <g  id="copper0">
    <circle r="1.8" stroke="black" stroke-width="0.720001" connectorname="1"  cy="8.928" cx="7.48874" id="connector0pad" fill="none"/>
    <path stroke="none" stroke-width="0" d="m7.48874,4.608a2.16,2.16,0,0,1,2.16,2.16l0,4.32a2.16,2.16,0,0,1,-2.16,2.16l0,0a2.16,2.16,0,0,1,-2.16,-2.16l0,-4.32a2.16,2.16,0,0,1,2.16,-2.16l0,0zM6.04874,8.928a1.44,1.44,0,1,0,2.88,0,1.44,1.44,0,1,0,-2.88,0z"  fill="black"/>
    <circle r="1.8" stroke="black" stroke-width="0.720001" connectorname="2"  cy="8.928" cx="14.6887" id="connector1pad" fill="none"/>
    <path stroke="none" stroke-width="0" d="m14.6887,4.608a2.16,2.16,0,0,1,2.16,2.16l0,4.32a2.16,2.16,0,0,1,-2.16,2.16l0,0a2.16,2.16,0,0,1,-2.16,-2.16l0,-4.32a2.16,2.16,0,0,1,2.16,-2.16l0,0zM13.2487,8.928a1.44,1.44,0,1,0,2.88,0,1.44,1.44,0,1,0,-2.88,0z"  fill="black"/>
    <circle r="1.8" stroke="black" stroke-width="0.720001" connectorname="3"  cy="8.928" cx="21.8888" id="connector2pad" fill="none"/>
    <path stroke="none" stroke-width="0" d="m21.8888,4.608a2.16,2.16,0,0,1,2.16,2.16l0,4.32a2.16,2.16,0,0,1,-2.16,2.16l0,0a2.16,2.16,0,0,1,-2.16,-2.16l0,-4.32a2.16,2.16,0,0,1,2.16,-2.16l0,0zM20.4488,8.928a1.44,1.44,0,1,0,2.88,0,1.44,1.44,0,1,0,-2.88,0z"  fill="black"/>
   </g>
  </g>
 </g>
 <g partID="854725450">
  <g transform="translate(71.2827,48.8237)">
   <g  id="copper0">
    <circle r="1.8" stroke="black" stroke-width="0.720001" connectorname="1"  cy="8.928" cx="7.48874" id="connector0pad" fill="none"/>
    <path stroke="none" stroke-width="0" d="m7.48874,4.608a2.16,2.16,0,0,1,2.16,2.16l0,4.32a2.16,2.16,0,0,1,-2.16,2.16l0,0a2.16,2.16,0,0,1,-2.16,-2.16l0,-4.32a2.16,2.16,0,0,1,2.16,-2.16l0,0zM6.04874,8.928a1.44,1.44,0,1,0,2.88,0,1.44,1.44,0,1,0,-2.88,0z"  fill="black"/>
    <circle r="1.8" stroke="black" stroke-width="0.720001" connectorname="2"  cy="8.928" cx="14.6887" id="connector1pad" fill="none"/>
    <path stroke="none" stroke-width="0" d="m14.6887,4.608a2.16,2.16,0,0,1,2.16,2.16l0,4.32a2.16,2.16,0,0,1,-2.16,2.16l0,0a2.16,2.16,0,0,1,-2.16,-2.16l0,-4.32a2.16,2.16,0,0,1,2.16,-2.16l0,0zM13.2487,8.928a1.44,1.44,0,1,0,2.88,0,1.44,1.44,0,1,0,-2.88,0z"  fill="black"/>
    <circle r="1.8" stroke="black" stroke-width="0.720001" connectorname="3"  cy="8.928" cx="21.8888" id="connector2pad" fill="none"/>
    <path stroke="none" stroke-width="0" d="m21.8888,4.608a2.16,2.16,0,0,1,2.16,2.16l0,4.32a2.16,2.16,0,0,1,-2.16,2.16l0,0a2.16,2.16,0,0,1,-2.16,-2.16l0,-4.32a2.16,2.16,0,0,1,2.16,-2.16l0,0zM20.4488,8.928a1.44,1.44,0,1,0,2.88,0,1.44,1.44,0,1,0,-2.88,0z"  fill="black"/>
   </g>
  </g>
 </g>
 <g partID="854725480">
  <g transform="translate(71.2827,77.6237)">
   <g  id="copper0">
    <circle r="1.8" stroke="black" stroke-width="0.720001" connectorname="1"  cy="8.928" cx="7.48874" id="connector0pad" fill="none"/>
    <path stroke="none" stroke-width="0" d="m7.48874,4.608a2.16,2.16,0,0,1,2.16,2.16l0,4.32a2.16,2.16,0,0,1,-2.16,2.16l0,0a2.16,2.16,0,0,1,-2.16,-2.16l0,-4.32a2.16,2.16,0,0,1,2.16,-2.16l0,0zM6.04874,8.928a1.44,1.44,0,1,0,2.88,0,1.44,1.44,0,1,0,-2.88,0z"  fill="black"/>
    <circle r="1.8" stroke="black" stroke-width="0.720001" connectorname="2"  cy="8.928" cx="14.6887" id="connector1pad" fill="none"/>
    <path stroke="none" stroke-width="0" d="m14.6887,4.608a2.16,2.16,0,0,1,2.16,2.16l0,4.32a2.16,2.16,0,0,1,-2.16,2.16l0,0a2.16,2.16,0,0,1,-2.16,-2.16l0,-4.32a2.16,2.16,0,0,1,2.16,-2.16l0,0zM13.2487,8.928a1.44,1.44,0,1,0,2.88,0,1.44,1.44,0,1,0,-2.88,0z"  fill="black"/>
    <circle r="1.8" stroke="black" stroke-width="0.720001" connectorname="3"  cy="8.928" cx="21.8888" id="connector2pad" fill="none"/>
    <path stroke="none" stroke-width="0" d="m21.8888,4.608a2.16,2.16,0,0,1,2.16,2.16l0,4.32a2.16,2.16,0,0,1,-2.16,2.16l0,0a2.16,2.16,0,0,1,-2.16,-2.16l0,-4.32a2.16,2.16,0,0,1,2.16,-2.16l0,0zM20.4488,8.928a1.44,1.44,0,1,0,2.88,0,1.44,1.44,0,1,0,-2.88,0z"  fill="black"/>
   </g>
  </g>
 </g>
 <g partID="854725510">
  <g transform="translate(71.2827,106.424)">
   <g  id="copper0">
    <circle r="1.8" stroke="black" stroke-width="0.720001" connectorname="1"  cy="8.928" cx="7.48874" id="connector0pad" fill="none"/>
    <path stroke="none" stroke-width="0" d="m7.48874,4.608a2.16,2.16,0,0,1,2.16,2.16l0,4.32a2.16,2.16,0,0,1,-2.16,2.16l0,0a2.16,2.16,0,0,1,-2.16,-2.16l0,-4.32a2.16,2.16,0,0,1,2.16,-2.16l0,0zM6.04874,8.928a1.44,1.44,0,1,0,2.88,0,1.44,1.44,0,1,0,-2.88,0z"  fill="black"/>
    <circle r="1.8" stroke="black" stroke-width="0.720001" connectorname="2"  cy="8.928" cx="14.6887" id="connector1pad" fill="none"/>
    <path stroke="none" stroke-width="0" d="m14.6887,4.608a2.16,2.16,0,0,1,2.16,2.16l0,4.32a2.16,2.16,0,0,1,-2.16,2.16l0,0a2.16,2.16,0,0,1,-2.16,-2.16l0,-4.32a2.16,2.16,0,0,1,2.16,-2.16l0,0zM13.2487,8.928a1.44,1.44,0,1,0,2.88,0,1.44,1.44,0,1,0,-2.88,0z"  fill="black"/>
    <circle r="1.8" stroke="black" stroke-width="0.720001" connectorname="3"  cy="8.928" cx="21.8888" id="connector2pad" fill="none"/>
    <path stroke="none" stroke-width="0" d="m21.8888,4.608a2.16,2.16,0,0,1,2.16,2.16l0,4.32a2.16,2.16,0,0,1,-2.16,2.16l0,0a2.16,2.16,0,0,1,-2.16,-2.16l0,-4.32a2.16,2.16,0,0,1,2.16,-2.16l0,0zM20.4488,8.928a1.44,1.44,0,1,0,2.88,0,1.44,1.44,0,1,0,-2.88,0z"  fill="black"/>
   </g>
  </g>
 </g>
 <g partID="854725540">
  <g transform="translate(13.6827,156.824)">
   <g  id="copper0">
    <circle r="1.8" stroke="black" stroke-width="0.720001" connectorname="1"  cy="8.928" cx="7.48874" id="connector0pad" fill="none"/>
    <path stroke="none" stroke-width="0" d="m7.48874,4.608a2.16,2.16,0,0,1,2.16,2.16l0,4.32a2.16,2.16,0,0,1,-2.16,2.16l0,0a2.16,2.16,0,0,1,-2.16,-2.16l0,-4.32a2.16,2.16,0,0,1,2.16,-2.16l0,0zM6.04874,8.928a1.44,1.44,0,1,0,2.88,0,1.44,1.44,0,1,0,-2.88,0z"  fill="black"/>
    <circle r="1.8" stroke="black" stroke-width="0.720001" connectorname="2"  cy="8.928" cx="14.6887" id="connector1pad" fill="none"/>
    <path stroke="none" stroke-width="0" d="m14.6887,4.608a2.16,2.16,0,0,1,2.16,2.16l0,4.32a2.16,2.16,0,0,1,-2.16,2.16l0,0a2.16,2.16,0,0,1,-2.16,-2.16l0,-4.32a2.16,2.16,0,0,1,2.16,-2.16l0,0zM13.2487,8.928a1.44,1.44,0,1,0,2.88,0,1.44,1.44,0,1,0,-2.88,0z"  fill="black"/>
    <circle r="1.8" stroke="black" stroke-width="0.720001" connectorname="3"  cy="8.928" cx="21.8888" id="connector2pad" fill="none"/>
    <path stroke="none" stroke-width="0" d="m21.8888,4.608a2.16,2.16,0,0,1,2.16,2.16l0,4.32a2.16,2.16,0,0,1,-2.16,2.16l0,0a2.16,2.16,0,0,1,-2.16,-2.16l0,-4.32a2.16,2.16,0,0,1,2.16,-2.16l0,0zM20.4488,8.928a1.44,1.44,0,1,0,2.88,0,1.44,1.44,0,1,0,-2.88,0z"  fill="black"/>
   </g>
  </g>
 </g>
 <g partID="854725570">
  <g transform="translate(71.2827,135.224)">
   <g  id="copper0">
    <circle r="1.8" stroke="black" stroke-width="0.720001" connectorname="1"  cy="8.928" cx="7.48874" id="connector0pad" fill="none"/>
    <path stroke="none" stroke-width="0" d="m7.48874,4.608a2.16,2.16,0,0,1,2.16,2.16l0,4.32a2.16,2.16,0,0,1,-2.16,2.16l0,0a2.16,2.16,0,0,1,-2.16,-2.16l0,-4.32a2.16,2.16,0,0,1,2.16,-2.16l0,0zM6.04874,8.928a1.44,1.44,0,1,0,2.88,0,1.44,1.44,0,1,0,-2.88,0z"  fill="black"/>
    <circle r="1.8" stroke="black" stroke-width="0.720001" connectorname="2"  cy="8.928" cx="14.6887" id="connector1pad" fill="none"/>
    <path stroke="none" stroke-width="0" d="m14.6887,4.608a2.16,2.16,0,0,1,2.16,2.16l0,4.32a2.16,2.16,0,0,1,-2.16,2.16l0,0a2.16,2.16,0,0,1,-2.16,-2.16l0,-4.32a2.16,2.16,0,0,1,2.16,-2.16l0,0zM13.2487,8.928a1.44,1.44,0,1,0,2.88,0,1.44,1.44,0,1,0,-2.88,0z"  fill="black"/>
    <circle r="1.8" stroke="black" stroke-width="0.720001" connectorname="3"  cy="8.928" cx="21.8888" id="connector2pad" fill="none"/>
    <path stroke="none" stroke-width="0" d="m21.8888,4.608a2.16,2.16,0,0,1,2.16,2.16l0,4.32a2.16,2.16,0,0,1,-2.16,2.16l0,0a2.16,2.16,0,0,1,-2.16,-2.16l0,-4.32a2.16,2.16,0,0,1,2.16,-2.16l0,0zM20.4488,8.928a1.44,1.44,0,1,0,2.88,0,1.44,1.44,0,1,0,-2.88,0z"  fill="black"/>
   </g>
  </g>
 </g>
 <g partID="854725600">
  <g transform="translate(71.2827,164.024)">
   <g  id="copper0">
    <circle r="1.8" stroke="black" stroke-width="0.720001" connectorname="1"  cy="8.928" cx="7.48874" id="connector0pad" fill="none"/>
    <path stroke="none" stroke-width="0" d="m7.48874,4.608a2.16,2.16,0,0,1,2.16,2.16l0,4.32a2.16,2.16,0,0,1,-2.16,2.16l0,0a2.16,2.16,0,0,1,-2.16,-2.16l0,-4.32a2.16,2.16,0,0,1,2.16,-2.16l0,0zM6.04874,8.928a1.44,1.44,0,1,0,2.88,0,1.44,1.44,0,1,0,-2.88,0z"  fill="black"/>
    <circle r="1.8" stroke="black" stroke-width="0.720001" connectorname="2"  cy="8.928" cx="14.6887" id="connector1pad" fill="none"/>
    <path stroke="none" stroke-width="0" d="m14.6887,4.608a2.16,2.16,0,0,1,2.16,2.16l0,4.32a2.16,2.16,0,0,1,-2.16,2.16l0,0a2.16,2.16,0,0,1,-2.16,-2.16l0,-4.32a2.16,2.16,0,0,1,2.16,-2.16l0,0zM13.2487,8.928a1.44,1.44,0,1,0,2.88,0,1.44,1.44,0,1,0,-2.88,0z"  fill="black"/>
    <circle r="1.8" stroke="black" stroke-width="0.720001" connectorname="3"  cy="8.928" cx="21.8888" id="connector2pad" fill="none"/>
    <path stroke="none" stroke-width="0" d="m21.8888,4.608a2.16,2.16,0,0,1,2.16,2.16l0,4.32a2.16,2.16,0,0,1,-2.16,2.16l0,0a2.16,2.16,0,0,1,-2.16,-2.16l0,-4.32a2.16,2.16,0,0,1,2.16,-2.16l0,0zM20.4488,8.928a1.44,1.44,0,1,0,2.88,0,1.44,1.44,0,1,0,-2.88,0z"  fill="black"/>
   </g>
  </g>
 </g>
 <g partID="854725630">
  <g transform="translate(71.2827,192.824)">
   <g  id="copper0">
    <circle r="1.8" stroke="black" stroke-width="0.720001" connectorname="1"  cy="8.928" cx="7.48874" id="connector0pad" fill="none"/>
    <path stroke="none" stroke-width="0" d="m7.48874,4.608a2.16,2.16,0,0,1,2.16,2.16l0,4.32a2.16,2.16,0,0,1,-2.16,2.16l0,0a2.16,2.16,0,0,1,-2.16,-2.16l0,-4.32a2.16,2.16,0,0,1,2.16,-2.16l0,0zM6.04874,8.928a1.44,1.44,0,1,0,2.88,0,1.44,1.44,0,1,0,-2.88,0z"  fill="black"/>
    <circle r="1.8" stroke="black" stroke-width="0.720001" connectorname="2"  cy="8.928" cx="14.6887" id="connector1pad" fill="none"/>
    <path stroke="none" stroke-width="0" d="m14.6887,4.608a2.16,2.16,0,0,1,2.16,2.16l0,4.32a2.16,2.16,0,0,1,-2.16,2.16l0,0a2.16,2.16,0,0,1,-2.16,-2.16l0,-4.32a2.16,2.16,0,0,1,2.16,-2.16l0,0zM13.2487,8.928a1.44,1.44,0,1,0,2.88,0,1.44,1.44,0,1,0,-2.88,0z"  fill="black"/>
    <circle r="1.8" stroke="black" stroke-width="0.720001" connectorname="3"  cy="8.928" cx="21.8888" id="connector2pad" fill="none"/>
    <path stroke="none" stroke-width="0" d="m21.8888,4.608a2.16,2.16,0,0,1,2.16,2.16l0,4.32a2.16,2.16,0,0,1,-2.16,2.16l0,0a2.16,2.16,0,0,1,-2.16,-2.16l0,-4.32a2.16,2.16,0,0,1,2.16,-2.16l0,0zM20.4488,8.928a1.44,1.44,0,1,0,2.88,0,1.44,1.44,0,1,0,-2.88,0z"  fill="black"/>
   </g>
  </g>
 </g>
 <g partID="854902250">
  <g transform="translate(28.0115,50.9117)">
   <g transform="matrix(0,-1,1,0,0,0)">
    <g flipped="1" id="copper0">
     <g transform="matrix(-1, 0, 0, 1, 29.52, 0)">
      <g>
       <g>
        <g>
         <g id="copper0">
          <rect stroke="black" y="12.78" stroke-width="1.44" width="3.96" x="5.58" height="3.96" id="rect11" fill="none"/>
          <circle r="1.98" stroke="black" stroke-width="1.44" cy="14.76" cx="7.56" id="connector0pin" fill="none"/>
          <circle r="1.98" stroke="black" stroke-width="1.44" cy="14.76" cx="21.96" id="connector1pin" fill="none"/>
         </g>
        </g>
        <g>
         <rect stroke="black" y="12.78" stroke-width="1.44" width="3.96" x="5.58" height="3.96" id="rect11" fill="none"/>
         <circle r="1.98" stroke="black" stroke-width="1.44" cy="14.76" cx="7.56" id="connector0pin" fill="none"/>
         <circle r="1.98" stroke="black" stroke-width="1.44" cy="14.76" cx="21.96" id="connector1pin" fill="none"/>
        </g>
       </g>
      </g>
     </g>
    </g>
   </g>
  </g>
 </g>
 <g partID="854982090">
  <g transform="translate(31.4675,177.452)">
   <g transform="matrix(0,1,-1,0,0,0)">
    <g  id="copper0">
     <g  id="copper1">
      <!-- <rect width="55" x="10" y="15.5" fill="none" height="55" stroke="rgb(255, 191, 0)" stroke-width="20" />  -->
      <circle r="1.98" stroke="black" stroke-width="1.44"  cy="3.096" cx="2.7" id="connector0pin" fill="none"/>
      <circle r="1.98" stroke="black" stroke-width="1.44"  cy="3.096" cx="31.5" id="connector1pin" fill="none"/>
     </g>
    </g>
   </g>
  </g>
 </g>
 <g partID="854982800">
  <g transform="translate(83.2715,40.2557)">
   <g  id="copper0">
    <g  id="copper1">
     <!-- <rect width="55" x="10" y="15.5" fill="none" height="55" stroke="rgb(255, 191, 0)" stroke-width="20" />  -->
     <circle r="1.98" stroke="black" stroke-width="1.44"  cy="3.096" cx="2.7" id="connector0pin" fill="none"/>
     <circle r="1.98" stroke="black" stroke-width="1.44"  cy="3.096" cx="31.5" id="connector1pin" fill="none"/>
    </g>
   </g>
  </g>
 </g>
 <g partID="854984080">
  <g transform="translate(83.2715,69.0557)">
   <g  id="copper0">
    <g  id="copper1">
     <!-- <rect width="55" x="10" y="15.5" fill="none" height="55" stroke="rgb(255, 191, 0)" stroke-width="20" />  -->
     <circle r="1.98" stroke="black" stroke-width="1.44"  cy="3.096" cx="2.7" id="connector0pin" fill="none"/>
     <circle r="1.98" stroke="black" stroke-width="1.44"  cy="3.096" cx="31.5" id="connector1pin" fill="none"/>
    </g>
   </g>
  </g>
 </g>
 <g partID="854984860">
  <g transform="translate(83.2715,97.8557)">
   <g  id="copper0">
    <g  id="copper1">
     <!-- <rect width="55" x="10" y="15.5" fill="none" height="55" stroke="rgb(255, 191, 0)" stroke-width="20" />  -->
     <circle r="1.98" stroke="black" stroke-width="1.44"  cy="3.096" cx="2.7" id="connector0pin" fill="none"/>
     <circle r="1.98" stroke="black" stroke-width="1.44"  cy="3.096" cx="31.5" id="connector1pin" fill="none"/>
    </g>
   </g>
  </g>
 </g>
 <g partID="854987120">
  <g transform="translate(83.2715,213.056)">
   <g  id="copper0">
    <g  id="copper1">
     <!-- <rect width="55" x="10" y="15.5" fill="none" height="55" stroke="rgb(255, 191, 0)" stroke-width="20" />  -->
     <circle r="1.98" stroke="black" stroke-width="1.44"  cy="3.096" cx="2.7" id="connector0pin" fill="none"/>
     <circle r="1.98" stroke="black" stroke-width="1.44"  cy="3.096" cx="31.5" id="connector1pin" fill="none"/>
    </g>
   </g>
  </g>
 </g>
 <g partID="854987700">
  <g transform="translate(83.2715,184.256)">
   <g  id="copper0">
    <g  id="copper1">
     <!-- <rect width="55" x="10" y="15.5" fill="none" height="55" stroke="rgb(255, 191, 0)" stroke-width="20" />  -->
     <circle r="1.98" stroke="black" stroke-width="1.44"  cy="3.096" cx="2.7" id="connector0pin" fill="none"/>
     <circle r="1.98" stroke="black" stroke-width="1.44"  cy="3.096" cx="31.5" id="connector1pin" fill="none"/>
    </g>
   </g>
  </g>
 </g>
 <g partID="854988080">
  <g transform="translate(83.2715,155.456)">
   <g  id="copper0">
    <g  id="copper1">
     <!-- <rect width="55" x="10" y="15.5" fill="none" height="55" stroke="rgb(255, 191, 0)" stroke-width="20" />  -->
     <circle r="1.98" stroke="black" stroke-width="1.44"  cy="3.096" cx="2.7" id="connector0pin" fill="none"/>
     <circle r="1.98" stroke="black" stroke-width="1.44"  cy="3.096" cx="31.5" id="connector1pin" fill="none"/>
    </g>
   </g>
  </g>
 </g>
 <g partID="854989060">
  <g transform="translate(83.2715,126.656)">
   <g  id="copper0">
    <g  id="copper1">
     <!-- <rect width="55" x="10" y="15.5" fill="none" height="55" stroke="rgb(255, 191, 0)" stroke-width="20" />  -->
     <circle r="1.98" stroke="black" stroke-width="1.44"  cy="3.096" cx="2.7" id="connector0pin" fill="none"/>
     <circle r="1.98" stroke="black" stroke-width="1.44"  cy="3.096" cx="31.5" id="connector1pin" fill="none"/>
    </g>
   </g>
  </g>
 </g>
 <g partID="854999040">
  <g transform="translate(52.4195,2.59968)">
   <g  id="copper0">
    <circle r="1.98" stroke="black" stroke-width="1.44"  cy="33.552" cx="4.752" id="connector0pad" fill="none"/>
    <circle r="1.98" stroke="black" stroke-width="1.44"  cy="4.752" cx="4.752" id="connector1pad" fill="none"/>
   </g>
  </g>
 </g>
 <g partID="854916010">
  <line x1="15.3395" stroke="black" stroke-width="1.728" x2="34.4195" stroke-linecap="round" y2="93.7517" y1="93.7517"/>
 </g>
 <g partID="854916570">
  <line x1="42.9325" stroke="black" stroke-width="1.728" x2="42.9325" stroke-linecap="round" y2="108.089" y1="79.4636"/>
 </g>
 <g partID="854917060">
  <line x1="42.9325" stroke="black" stroke-width="1.728" x2="36.7234" stroke-linecap="round" y2="108.142" y1="108.089"/>
 </g>
 <g partID="854916090">
  <line x1="15.3394" stroke="black" stroke-width="1.728" x2="42.9325" stroke-linecap="round" y2="79.4636" y1="79.357"/>
 </g>
 <g partID="854971540">
  <line x1="6.96328" stroke="black" stroke-width="1.728" x2="12.6038" stroke-linecap="round" y2="79.3824" y1="79.5092"/>
 </g>
 <g partID="854917770">
  <line x1="41.5115" stroke="black" stroke-width="1.728" x2="6.96328" stroke-linecap="round" y2="28.8055" y1="28.9465"/>
 </g>
 <g partID="854971830">
  <line x1="6.96328" stroke="black" stroke-width="1.728" x2="6.96328" stroke-linecap="round" y2="79.5092" y1="28.8055"/>
 </g>
 <g partID="854921080">
  <line x1="57.0249" stroke="black" stroke-width="1.728" x2="15.3394" stroke-linecap="round" y2="72.1461" y1="71.977"/>
 </g>
 <g partID="854920700">
  <line x1="57.1599" stroke="black" stroke-width="1.728" x2="57.0249" stroke-linecap="round" y2="71.977" y1="85.3997"/>
 </g>
 <g partID="854939060">
  <line x1="35.5715" stroke="black" stroke-width="3.456" x2="35.5715" stroke-linecap="round" y2="114.2" y1="109.304"/>
 </g>
 <g partID="854940350">
  <line x1="42.9325" stroke="black" stroke-width="1.728" x2="36.723" stroke-linecap="round" y2="136.983" y1="137.155"/>
 </g>
 <g partID="854939920">
  <line x1="42.9325" stroke="black" stroke-width="1.728" x2="42.9325" stroke-linecap="round" y2="137.155" y1="115.135"/>
 </g>
 <g partID="854939500">
  <line x1="36.723" stroke="black" stroke-width="1.728" x2="42.9325" stroke-linecap="round" y2="115.135" y1="115.318"/>
 </g>
 <g partID="854961970">
  <line x1="64.3167" stroke="black" stroke-width="1.728" x2="77.3315" stroke-linecap="round" y2="28.9371" y1="28.8055"/>
 </g>
 <g partID="854961920">
  <line x1="64.3167" stroke="black" stroke-width="1.728" x2="64.3167" stroke-linecap="round" y2="28.8055" y1="93.6398"/>
 </g>
 <g partID="854961880">
  <line x1="58.3233" stroke="black" stroke-width="1.728" x2="64.3167" stroke-linecap="round" y2="93.6398" y1="93.7336"/>
 </g>
 <g partID="854962110">
  <line x1="71.3819" stroke="black" stroke-width="1.728" x2="71.3819" stroke-linecap="round" y2="101.121" y1="57.8978"/>
 </g>
 <g partID="854962060">
  <line x1="71.3819" stroke="black" stroke-width="1.728" x2="58.3234" stroke-linecap="round" y2="100.965" y1="101.121"/>
 </g>
 <g partID="854962020">
  <line x1="77.3317" stroke="black" stroke-width="1.728" x2="71.3819" stroke-linecap="round" y2="57.8978" y1="57.7802"/>
 </g>
 <g partID="854962200">
  <line x1="78.8628" stroke="black" stroke-width="1.728" x2="58.3235" stroke-linecap="round" y2="108.153" y1="108.186"/>
 </g>
 <g partID="854962160">
  <line x1="78.7775" stroke="black" stroke-width="1.728" x2="78.8628" stroke-linecap="round" y2="108.186" y1="87.9917"/>
 </g>
 <g partID="854963650">
  <line x1="77.3314" stroke="black" stroke-width="1.728" x2="58.3235" stroke-linecap="round" y2="115.352" y1="115.352"/>
 </g>
 <g partID="854964130">
  <line x1="78.8628" stroke="black" stroke-width="1.728" x2="58.2641" stroke-linecap="round" y2="122.917" y1="129.797"/>
 </g>
 <g partID="854964090">
  <line x1="78.7806" stroke="black" stroke-width="1.728" x2="78.8628" stroke-linecap="round" y2="129.797" y1="142.712"/>
 </g>
 <g partID="854964380">
  <line x1="77.3315" stroke="black" stroke-width="1.728" x2="71.3819" stroke-linecap="round" y2="173.02" y1="172.965"/>
 </g>
 <g partID="854964420">
  <line x1="71.3819" stroke="black" stroke-width="1.728" x2="58.2017" stroke-linecap="round" y2="130.267" y1="136.863"/>
 </g>
 <g partID="854964470">
  <line x1="71.3819" stroke="black" stroke-width="1.728" x2="71.3819" stroke-linecap="round" y2="136.863" y1="173.02"/>
 </g>
 <g partID="854964540">
  <line x1="92.9933" stroke="black" stroke-width="1.728" x2="93.1536" stroke-linecap="round" y2="145.592" y1="158.474"/>
 </g>
 <g partID="854964550">
  <line x1="93.1537" stroke="black" stroke-width="1.728" x2="92.9933" stroke-linecap="round" y2="158.474" y1="171.512"/>
 </g>
 <g partID="854965340">
  <line x1="57.2514" stroke="black" stroke-width="1.728" x2="57.1729" stroke-linecap="round" y2="138.104" y1="201.697"/>
 </g>
 <g partID="854965300">
  <line x1="77.3315" stroke="black" stroke-width="1.728" x2="57.2514" stroke-linecap="round" y2="201.697" y1="201.748"/>
 </g>
 <g partID="854965390">
  <line x1="93.1715" stroke="black" stroke-width="1.728" x2="93.1715" stroke-linecap="round" y2="200.312" y1="174.392"/>
 </g>
 <g partID="854965770">
  <line x1="93.1715" stroke="black" stroke-width="1.728" x2="93.1715" stroke-linecap="round" y2="142.712" y1="116.792"/>
 </g>
 <g partID="854966130">
  <line x1="93.1715" stroke="black" stroke-width="1.728" x2="93.1715" stroke-linecap="round" y2="87.9917" y1="113.912"/>
 </g>
 <g partID="854966490">
  <line x1="93.1715" stroke="black" stroke-width="1.728" x2="93.1715" stroke-linecap="round" y2="59.1917" y1="85.1117"/>
 </g>
 <g partID="854966810">
  <line x1="93.1715" stroke="black" stroke-width="1.728" x2="93.1715" stroke-linecap="round" y2="30.3917" y1="56.3117"/>
 </g>
 <g partID="854969130">
  <line x1="35.5715" stroke="black" stroke-width="1.728" x2="35.5715" stroke-linecap="round" y2="164.312" y1="138.104"/>
 </g>
 <g partID="854969450">
  <line x1="21.0938" stroke="black" stroke-width="1.728" x2="34.4195" stroke-linecap="round" y2="129.755" y1="129.797"/>
 </g>
 <g partID="854969410">
  <line x1="21.1683" stroke="black" stroke-width="1.728" x2="21.0938" stroke-linecap="round" y2="129.797" y1="164.312"/>
 </g>
 <g partID="854976570">
  <line x1="42.7052" stroke="black" stroke-width="1.728" x2="42.7685" stroke-linecap="round" y2="44.6117" y1="72.0284"/>
 </g>
 <g partID="854976190">
  <line x1="15.3394" stroke="black" stroke-width="1.728" x2="42.7052" stroke-linecap="round" y2="72.0284" y1="72.1458"/>
 </g>
 <g partID="854977670">
  <line x1="42.7052" stroke="black" stroke-width="1.728" x2="92.9933" stroke-linecap="round" y2="14.675" y1="14.675"/>
 </g>
 <g partID="854976980">
  <line x1="42.7656" stroke="black" stroke-width="1.728" x2="42.7052" stroke-linecap="round" y2="14.675" y1="27.6917"/>
 </g>
 <g partID="854977400">
  <line x1="92.9933" stroke="black" stroke-width="1.728" x2="93.1535" stroke-linecap="round" y2="27.5118" y1="14.675"/>
 </g>
 <g partID="854995250">
  <line x1="114.605" stroke="black" stroke-width="1.728" x2="28.5747" stroke-linecap="round" y2="223.308" y1="223.308"/>
 </g>
 <g partID="854994460">
  <line x1="114.742" stroke="black" stroke-width="1.728" x2="114.605" stroke-linecap="round" y2="223.308" y1="217.411"/>
 </g>
 <g partID="854994820">
  <line x1="28.5747" stroke="black" stroke-width="1.728" x2="28.3893" stroke-linecap="round" y2="210.212" y1="223.308"/>
 </g>
 <g partID="854995210">
  <line x1="28.3715" stroke="black" stroke-width="1.728" x2="28.3715" stroke-linecap="round" y2="167.192" y1="178.892"/>
 </g>
 <g partID="854995620">
  <line x1="85.9715" stroke="black" stroke-width="1.728" x2="85.9715" stroke-linecap="round" y2="203.192" y1="214.892"/>
 </g>
 <g partID="854995660">
  <line x1="85.9715" stroke="black" stroke-width="1.728" x2="85.9715" stroke-linecap="round" y2="174.392" y1="186.092"/>
 </g>
 <g partID="854995700">
  <line x1="85.9715" stroke="black" stroke-width="1.728" x2="85.9715" stroke-linecap="round" y2="145.592" y1="157.292"/>
 </g>
 <g partID="854995740">
  <line x1="85.9715" stroke="black" stroke-width="1.728" x2="85.9715" stroke-linecap="round" y2="116.792" y1="128.492"/>
 </g>
 <g partID="854996460">
  <line x1="114.771" stroke="black" stroke-width="1.728" x2="114.771" stroke-linecap="round" y2="73.4117" y1="99.6917"/>
 </g>
 <g partID="854996800">
  <line x1="85.9715" stroke="black" stroke-width="1.728" x2="85.9715" stroke-linecap="round" y2="30.3917" y1="42.0917"/>
 </g>
 <g partID="854996860">
  <line x1="85.9715" stroke="black" stroke-width="1.728" x2="85.9715" stroke-linecap="round" y2="59.1917" y1="70.8917"/>
 </g>
 <g partID="854996900">
  <line x1="85.9715" stroke="black" stroke-width="1.728" x2="85.9715" stroke-linecap="round" y2="87.9917" y1="99.6917"/>
 </g>
 <g partID="854996940">
  <line x1="114.771" stroke="black" stroke-width="1.728" x2="114.771" stroke-linecap="round" y2="128.492" y1="102.212"/>
 </g>
 <g partID="854997260">
  <line x1="114.771" stroke="black" stroke-width="1.728" x2="114.771" stroke-linecap="round" y2="44.6117" y1="70.8917"/>
 </g>
 <g partID="854997560">
  <line x1="114.771" stroke="black" stroke-width="1.728" x2="114.771" stroke-linecap="round" y2="157.292" y1="131.012"/>
 </g>
 <g partID="854997860">
  <line x1="114.771" stroke="black" stroke-width="1.728" x2="114.771" stroke-linecap="round" y2="186.092" y1="159.812"/>
 </g>
 <g partID="854998120">
  <line x1="114.771" stroke="black" stroke-width="1.728" x2="114.771" stroke-linecap="round" y2="214.892" y1="188.612"/>
 </g>
 <g partID="854999060">
  <line x1="57.1735" stroke="black" stroke-width="1.728" x2="57.2514" stroke-linecap="round" y2="86.5745" y1="37.4117"/>
 </g>
 <g partID="854999080">
  <line x1="57.2514" stroke="black" stroke-width="1.728" x2="60.4678" stroke-linecap="round" y2="84.7704" y1="86.5745"/>
 </g>
 <g partID="854999100">
  <line x1="60.4678" stroke="black" stroke-width="1.728" x2="58.7398" stroke-linecap="round" y2="84.7704" y1="84.7704"/>
 </g>
 <g partID="854999120">
  <line x1="58.7398" stroke="black" stroke-width="1.728" x2="57.9327" stroke-linecap="round" y2="85.6871" y1="84.7704"/>
 </g>
 <g partID="854999860">
  <line x1="114.605" stroke="black" stroke-width="1.728" x2="114.605" stroke-linecap="round" y2="72.0284" y1="7.19411"/>
 </g>
 <g partID="854999140">
  <line x1="58.4314" stroke="black" stroke-width="1.728" x2="114.605" stroke-linecap="round" y2="7.19411" y1="7.34822"/>
 </g>
 <g partID="855000090">
  <line x1="114.605" stroke="black" stroke-width="1.728" x2="112.308" stroke-linecap="round" y2="72.6744" y1="72.0284"/>
 </g>
 <g partID="854999160">
  <line x1="112.308" stroke="black" stroke-width="1.728" x2="113.539" stroke-linecap="round" y2="72.4132" y1="72.6744"/>
 </g>
 <g partID="855000380">
  <line x1="15.3395" stroke="black" stroke-width="1.728" x2="34.4195" stroke-linecap="round" y2="86.5517" y1="86.5517"/>
 </g>
 <g partID="855000460">
  <line x1="15.3395" stroke="black" stroke-width="1.728" x2="34.4195" stroke-linecap="round" y2="100.952" y1="100.952"/>
 </g>
 <g partID="855000560">
  <line x1="13.9768" stroke="black" stroke-width="1.728" x2="14.0285" stroke-linecap="round" y2="122.732" y1="109.52"/>
 </g>
 <g partID="855000600">
  <line x1="14.0285" stroke="black" stroke-width="1.728" x2="34.4195" stroke-linecap="round" y2="122.561" y1="122.732"/>
 </g>
</svg>
