<?xml version='1.0' encoding='UTF-8' standalone='no'?>
<!-- Created with Fritzing (https://fritzing.org/) -->
<svg xmlns="http://www.w3.org/2000/svg" viewBox="0 0 92.7658 124.894" width="1.28841in" xmlns:svg="http://www.w3.org/2000/svg"  y="0in" height="1.73464in" x="0in" version="1.2" baseProfile="tiny">
 <g transform="matrix(-1, 0, 0, 1, 92.7658, 0)">
  <g partID="57872">
   <g id="silkscreen">
    <rect stroke="black" width="92.1898" stroke-width="0.576" fill="none" y="0.288" height="124.318" x="0.288"/>
   </g>
  </g>
  <g partID="57870">
   <g id="board">
    <rect stroke="black" width="92.1898" stroke-width="0.5" fill="none" y="0.288" height="124.318" x="0.288" fill-opacity="0.5" id="boardoutline"/>
   </g>
  </g>
  <g partID="57872">
   <g id="silkscreen">
    <rect stroke="black" width="92.1898" stroke-width="0.576" fill="none" y="0.288" height="124.318" x="0.288"/>
   </g>
  </g>
  <g partID="854656812">
   <g transform="translate(70.1359,35.9539)">
    <g transform="matrix(0,1,-1,0,0,0)">
     <g gorn="0.2" id="silkscreen">
      <line y1="6.264" stroke="black" stroke-width="0.864" y2="6.264" class="other" stroke-linecap="round" x2="0.432" x1="58.032"/>
      <line y1="22.824" stroke="black" stroke-width="0.864" y2="22.824" class="other" stroke-linecap="round" x2="58.032" x1="0.432"/>
      <line y1="6.264" stroke="black" stroke-width="0.864" y2="22.824" class="other" stroke-linecap="round" x2="58.032" x1="58.032"/>
      <line y1="6.264" stroke="black" stroke-width="0.864" y2="11.664" class="other" stroke-linecap="round" x2="0.432" x1="0.432"/>
      <line y1="22.824" stroke="black" stroke-width="0.864" y2="17.424" class="other" stroke-linecap="round" x2="0.432" x1="0.432"/>
      <path stroke="black" stroke-width="0.864" fill="none" class="other" d="M0.432,17.424A2.88,2.88,0,1,0,0.432,11.664"/>
     </g>
    </g>
   </g>
  </g>
  <g partID="854657222">
   <g transform="translate(75.7519,42.1459)">
    <g gorn="0.1" id="silkscreen">
     <line stroke="black" y1="1.44" stroke-width="0.72" y2="44.64" x2="1.44" x1="1.44"/>
     <line stroke="black" y1="44.64" stroke-width="0.72" y2="44.64" x2="8.64" x1="1.44"/>
     <line stroke="black" y1="44.64" stroke-width="0.72" y2="1.44" x2="8.64" x1="8.64"/>
     <line stroke="black" y1="1.44" stroke-width="0.72" y2="1.44" x2="1.44" x1="8.64"/>
     <line stroke="black" y1="3.96" stroke-width="0.36" y2="1.44" x2="3.96" x1="1.44"/>
     <!-- 120 -->
    </g>
   </g>
  </g>
  <g partID="854658172">
   <g transform="translate(3.75189,45.0259)">
    <g transform="matrix(0,-1,1,0,0,0)">
     <g gorn="0.1" id="silkscreen">
      <line stroke="black" y1="1.44" stroke-width="0.72" y2="23.04" x2="1.44" x1="1.44"/>
      <line stroke="black" y1="23.04" stroke-width="0.72" y2="23.04" x2="8.64" x1="1.44"/>
      <line stroke="black" y1="23.04" stroke-width="0.72" y2="1.44" x2="8.64" x1="8.64"/>
      <line stroke="black" y1="1.44" stroke-width="0.72" y2="1.44" x2="1.44" x1="8.64"/>
      <line stroke="black" y1="3.96" stroke-width="0.36" y2="1.44" x2="3.96" x1="1.44"/>
      <!-- 120 -->
     </g>
    </g>
   </g>
  </g>
  <g partID="854658272">
   <g transform="translate(3.75189,59.4259)">
    <g transform="matrix(0,-1,1,0,0,0)">
     <g gorn="0.1" id="silkscreen">
      <line stroke="black" y1="1.44" stroke-width="0.72" y2="23.04" x2="1.44" x1="1.44"/>
      <line stroke="black" y1="23.04" stroke-width="0.72" y2="23.04" x2="8.64" x1="1.44"/>
      <line stroke="black" y1="23.04" stroke-width="0.72" y2="1.44" x2="8.64" x1="8.64"/>
      <line stroke="black" y1="1.44" stroke-width="0.72" y2="1.44" x2="1.44" x1="8.64"/>
      <line stroke="black" y1="3.96" stroke-width="0.36" y2="1.44" x2="3.96" x1="1.44"/>
      <!-- 120 -->
     </g>
    </g>
   </g>
  </g>
  <g partID="854658302">
   <g transform="translate(3.75189,73.8259)">
    <g transform="matrix(0,-1,1,0,0,0)">
     <g gorn="0.1" id="silkscreen">
      <line stroke="black" y1="1.44" stroke-width="0.72" y2="23.04" x2="1.44" x1="1.44"/>
      <line stroke="black" y1="23.04" stroke-width="0.72" y2="23.04" x2="8.64" x1="1.44"/>
      <line stroke="black" y1="23.04" stroke-width="0.72" y2="1.44" x2="8.64" x1="8.64"/>
      <line stroke="black" y1="1.44" stroke-width="0.72" y2="1.44" x2="1.44" x1="8.64"/>
      <line stroke="black" y1="3.96" stroke-width="0.36" y2="1.44" x2="3.96" x1="1.44"/>
      <!-- 120 -->
     </g>
    </g>
   </g>
  </g>
  <g partID="854658332">
   <g transform="translate(3.75189,88.2259)">
    <g transform="matrix(0,-1,1,0,0,0)">
     <g gorn="0.1" id="silkscreen">
      <line stroke="black" y1="1.44" stroke-width="0.72" y2="23.04" x2="1.44" x1="1.44"/>
      <line stroke="black" y1="23.04" stroke-width="0.72" y2="23.04" x2="8.64" x1="1.44"/>
      <line stroke="black" y1="23.04" stroke-width="0.72" y2="1.44" x2="8.64" x1="8.64"/>
      <line stroke="black" y1="1.44" stroke-width="0.72" y2="1.44" x2="1.44" x1="8.64"/>
      <line stroke="black" y1="3.96" stroke-width="0.36" y2="1.44" x2="3.96" x1="1.44"/>
      <!-- 120 -->
     </g>
    </g>
   </g>
  </g>
  <g partID="854658362">
   <g transform="translate(3.75189,102.626)">
    <g transform="matrix(0,-1,1,0,0,0)">
     <g gorn="0.1" id="silkscreen">
      <line stroke="black" y1="1.44" stroke-width="0.72" y2="23.04" x2="1.44" x1="1.44"/>
      <line stroke="black" y1="23.04" stroke-width="0.72" y2="23.04" x2="8.64" x1="1.44"/>
      <line stroke="black" y1="23.04" stroke-width="0.72" y2="1.44" x2="8.64" x1="8.64"/>
      <line stroke="black" y1="1.44" stroke-width="0.72" y2="1.44" x2="1.44" x1="8.64"/>
      <line stroke="black" y1="3.96" stroke-width="0.36" y2="1.44" x2="3.96" x1="1.44"/>
      <!-- 120 -->
     </g>
    </g>
   </g>
  </g>
  <g partID="854658392">
   <g transform="translate(3.75189,30.6259)">
    <g transform="matrix(0,-1,1,0,0,0)">
     <g gorn="0.1" id="silkscreen">
      <line stroke="black" y1="1.44" stroke-width="0.72" y2="23.04" x2="1.44" x1="1.44"/>
      <line stroke="black" y1="23.04" stroke-width="0.72" y2="23.04" x2="8.64" x1="1.44"/>
      <line stroke="black" y1="23.04" stroke-width="0.72" y2="1.44" x2="8.64" x1="8.64"/>
      <line stroke="black" y1="1.44" stroke-width="0.72" y2="1.44" x2="1.44" x1="8.64"/>
      <line stroke="black" y1="3.96" stroke-width="0.36" y2="1.44" x2="3.96" x1="1.44"/>
      <!-- 120 -->
     </g>
    </g>
   </g>
  </g>
  <g partID="854658422">
   <g transform="translate(3.75189,117.026)">
    <g transform="matrix(0,-1,1,0,0,0)">
     <g gorn="0.1" id="silkscreen">
      <line stroke="black" y1="1.44" stroke-width="0.72" y2="23.04" x2="1.44" x1="1.44"/>
      <line stroke="black" y1="23.04" stroke-width="0.72" y2="23.04" x2="8.64" x1="1.44"/>
      <line stroke="black" y1="23.04" stroke-width="0.72" y2="1.44" x2="8.64" x1="8.64"/>
      <line stroke="black" y1="1.44" stroke-width="0.72" y2="1.44" x2="1.44" x1="8.64"/>
      <line stroke="black" y1="3.96" stroke-width="0.36" y2="1.44" x2="3.96" x1="1.44"/>
      <!-- 120 -->
     </g>
    </g>
   </g>
  </g>
  <g partID="854658452">
   <g transform="translate(3.75189,16.2259)">
    <g transform="matrix(0,-1,1,0,0,0)">
     <g gorn="0.1" id="silkscreen">
      <line stroke="black" y1="1.44" stroke-width="0.72" y2="23.04" x2="1.44" x1="1.44"/>
      <line stroke="black" y1="23.04" stroke-width="0.72" y2="23.04" x2="8.64" x1="1.44"/>
      <line stroke="black" y1="23.04" stroke-width="0.72" y2="1.44" x2="8.64" x1="8.64"/>
      <line stroke="black" y1="1.44" stroke-width="0.72" y2="1.44" x2="1.44" x1="8.64"/>
      <line stroke="black" y1="3.96" stroke-width="0.36" y2="1.44" x2="3.96" x1="1.44"/>
      <!-- 120 -->
     </g>
    </g>
   </g>
  </g>
  <g partID="854656810" id="partLabel">
   <g transform="translate(84.8239,45.0419)">
    <g font-style="normal" stroke="none" fill="#000000" font-weight="normal" font-size="5" font-family="'OCRA'" fill-opacity="1" id="silkscreenLabel">
     <text y="3.75" x="0">ADC1</text>
    </g>
   </g>
  </g>
  <g partID="854657220" id="partLabel">
   <g transform="translate(85.8319,36.5459)">
    <g font-style="normal" stroke="none" fill="#000000" font-weight="normal" font-size="5" font-family="'OCRA'" fill-opacity="1" id="silkscreenLabel">
     <text y="3.75" x="0">U1</text>
    </g>
   </g>
  </g>
  <g partID="854658170" id="partLabel">
   <g transform="translate(10.9519,57.8259)">
    <g transform="matrix(-1,0,0,-1,0,0)">
     <g font-style="normal" stroke="none" fill="#000000" font-weight="normal" font-size="5" font-family="'OCRA'" fill-opacity="1" id="silkscreenLabel">
      <text y="3.75" x="0">U2</text>
     </g>
    </g>
   </g>
  </g>
  <g partID="854658270" id="partLabel">
   <g transform="translate(-1.84811,49.3459)">
    <g transform="matrix(0,-1,1,0,0,0)">
     <g font-style="normal" stroke="none" fill="#000000" font-weight="normal" font-size="5" font-family="'OCRA'" fill-opacity="1" id="silkscreenLabel">
      <text y="3.75" x="0">U3</text>
     </g>
    </g>
   </g>
  </g>
  <g partID="854658300" id="partLabel">
   <g transform="translate(-1.84811,63.7459)">
    <g transform="matrix(0,-1,1,0,0,0)">
     <g font-style="normal" stroke="none" fill="#000000" font-weight="normal" font-size="5" font-family="'OCRA'" fill-opacity="1" id="silkscreenLabel">
      <text y="3.75" x="0">U4</text>
     </g>
    </g>
   </g>
  </g>
  <g partID="854658330" id="partLabel">
   <g transform="translate(10.9519,101.026)">
    <g transform="matrix(-1,0,0,-1,0,0)">
     <g font-style="normal" stroke="none" fill="#000000" font-weight="normal" font-size="5" font-family="'OCRA'" fill-opacity="1" id="silkscreenLabel">
      <text y="3.75" x="0">U5</text>
     </g>
    </g>
   </g>
  </g>
  <g partID="854658360" id="partLabel">
   <g transform="translate(-1.84811,92.5459)">
    <g transform="matrix(0,-1,1,0,0,0)">
     <g font-style="normal" stroke="none" fill="#000000" font-weight="normal" font-size="5" font-family="'OCRA'" fill-opacity="1" id="silkscreenLabel">
      <text y="3.75" x="0">U6</text>
     </g>
    </g>
   </g>
  </g>
  <g partID="854658390" id="partLabel">
   <g transform="translate(10.9519,43.4259)">
    <g transform="matrix(-1,0,0,-1,0,0)">
     <g font-style="normal" stroke="none" fill="#000000" font-weight="normal" font-size="5" font-family="'OCRA'" fill-opacity="1" id="silkscreenLabel">
      <text y="3.75" x="0">U7</text>
     </g>
    </g>
   </g>
  </g>
  <g partID="854658420" id="partLabel">
   <g transform="translate(-1.84811,106.946)">
    <g transform="matrix(0,-1,1,0,0,0)">
     <g font-style="normal" stroke="none" fill="#000000" font-weight="normal" font-size="5" font-family="'OCRA'" fill-opacity="1" id="silkscreenLabel">
      <text y="3.75" x="0">U8</text>
     </g>
    </g>
   </g>
  </g>
  <g partID="854658450" id="partLabel">
   <g transform="translate(-1.84811,6.14595)">
    <g transform="matrix(0,-1,1,0,0,0)">
     <g font-style="normal" stroke="none" fill="#000000" font-weight="normal" font-size="5" font-family="'OCRA'" fill-opacity="1" id="silkscreenLabel">
      <text y="3.75" x="0">U9</text>
     </g>
    </g>
   </g>
  </g>
  <g partID="854656811">
   <g transform="translate(70.1359,35.9539)">
    <g transform="matrix(0,1,-1,0,0,0)">
     <g gorn="0.1" id="copper1">
      <circle stroke="white" connectorname="1" stroke-width="1.44" fill="white" cy="25.344" gorn="0.1.0" cx="4.032" id="connector0pad" r="1.512"/>
      <path stroke="white" stroke-width="0.72" fill="white" d="m4.032,21.6a1.872,1.872,0,0,1,1.872,1.872l0,3.744a1.872,1.872,0,0,1,-1.872,1.872l0,0a1.872,1.872,0,0,1,-1.872,-1.872l0,-3.744a1.872,1.872,0,0,1,1.872,-1.872l0,0zM2.88,25.344a1.152,1.152,0,1,0,2.304,0,1.152,1.152,0,1,0,-2.304,0z"/>
      <circle stroke="white" connectorname="2" stroke-width="1.44" fill="white" cy="25.344" gorn="0.1.2" cx="11.232" id="connector1pad" r="1.512"/>
      <path stroke="white" stroke-width="0.72" fill="white" d="m11.232,21.6a1.872,1.872,0,0,1,1.872,1.872l0,3.744a1.872,1.872,0,0,1,-1.872,1.872l0,0a1.872,1.872,0,0,1,-1.872,-1.872l0,-3.744a1.872,1.872,0,0,1,1.872,-1.872l0,0zM10.08,25.344a1.152,1.152,0,1,0,2.304,0,1.152,1.152,0,1,0,-2.304,0z"/>
      <circle stroke="white" connectorname="3" stroke-width="1.44" fill="white" cy="25.344" gorn="0.1.4" cx="18.432" id="connector2pad" r="1.512"/>
      <path stroke="white" stroke-width="0.72" fill="white" d="m18.432,21.6a1.872,1.872,0,0,1,1.872,1.872l0,3.744a1.872,1.872,0,0,1,-1.872,1.872l0,0a1.872,1.872,0,0,1,-1.872,-1.872l0,-3.744a1.872,1.872,0,0,1,1.872,-1.872l0,0zM17.28,25.344a1.152,1.152,0,1,0,2.304,0,1.152,1.152,0,1,0,-2.304,0z"/>
      <circle stroke="white" connectorname="4" stroke-width="1.44" fill="white" cy="25.344" gorn="0.1.6" cx="25.632" id="connector3pad" r="1.512"/>
      <path stroke="white" stroke-width="0.72" fill="white" d="m25.632,21.6a1.872,1.872,0,0,1,1.872,1.872l0,3.744a1.872,1.872,0,0,1,-1.872,1.872l0,0a1.872,1.872,0,0,1,-1.872,-1.872l0,-3.744a1.872,1.872,0,0,1,1.872,-1.872l0,0zM24.48,25.344a1.152,1.152,0,1,0,2.304,0,1.152,1.152,0,1,0,-2.304,0z"/>
      <circle stroke="white" connectorname="5" stroke-width="1.44" fill="white" cy="25.344" gorn="0.1.8" cx="32.832" id="connector4pad" r="1.512"/>
      <path stroke="white" stroke-width="0.72" fill="white" d="m32.832,21.6a1.872,1.872,0,0,1,1.872,1.872l0,3.744a1.872,1.872,0,0,1,-1.872,1.872l0,0a1.872,1.872,0,0,1,-1.872,-1.872l0,-3.744a1.872,1.872,0,0,1,1.872,-1.872l0,0zM31.68,25.344a1.152,1.152,0,1,0,2.304,0,1.152,1.152,0,1,0,-2.304,0z"/>
      <circle stroke="white" connectorname="6" stroke-width="1.44" fill="white" cy="25.344" gorn="0.1.10" cx="40.032" id="connector5pad" r="1.512"/>
      <path stroke="white" stroke-width="0.72" fill="white" d="m40.032,21.6a1.872,1.872,0,0,1,1.872,1.872l0,3.744a1.872,1.872,0,0,1,-1.872,1.872l0,0a1.872,1.872,0,0,1,-1.872,-1.872l0,-3.744a1.872,1.872,0,0,1,1.872,-1.872l0,0zM38.88,25.344a1.152,1.152,0,1,0,2.304,0,1.152,1.152,0,1,0,-2.304,0z"/>
      <circle stroke="white" connectorname="7" stroke-width="1.44" fill="white" cy="25.344" gorn="0.1.12" cx="47.232" id="connector6pad" r="1.512"/>
      <path stroke="white" stroke-width="0.72" fill="white" d="m47.232,21.6a1.872,1.872,0,0,1,1.872,1.872l0,3.744a1.872,1.872,0,0,1,-1.872,1.872l0,0a1.872,1.872,0,0,1,-1.872,-1.872l0,-3.744a1.872,1.872,0,0,1,1.872,-1.872l0,0zM46.08,25.344a1.152,1.152,0,1,0,2.304,0,1.152,1.152,0,1,0,-2.304,0z"/>
      <circle stroke="white" connectorname="8" stroke-width="1.44" fill="white" cy="25.344" gorn="0.1.14" cx="54.432" id="connector7pad" r="1.512"/>
      <path stroke="white" stroke-width="0.72" fill="white" d="m54.432,21.6a1.872,1.872,0,0,1,1.872,1.872l0,3.744a1.872,1.872,0,0,1,-1.872,1.872l0,0a1.872,1.872,0,0,1,-1.872,-1.872l0,-3.744a1.872,1.872,0,0,1,1.872,-1.872l0,0zM53.28,25.344a1.152,1.152,0,1,0,2.304,0,1.152,1.152,0,1,0,-2.304,0z"/>
      <circle stroke="white" connectorname="9" stroke-width="1.44" fill="white" cy="3.744" gorn="0.1.16" cx="54.432" id="connector8pad" r="1.512"/>
      <path stroke="white" stroke-width="0.72" fill="white" d="m54.432,0a1.872,1.872,0,0,1,1.872,1.872l0,3.744a1.872,1.872,0,0,1,-1.872,1.872l0,0a1.872,1.872,0,0,1,-1.872,-1.872l0,-3.744a1.872,1.872,0,0,1,1.872,-1.872l0,0zM53.28,3.744a1.152,1.152,0,1,0,2.304,0,1.152,1.152,0,1,0,-2.304,0z"/>
      <circle stroke="white" connectorname="10" stroke-width="1.44" fill="white" cy="3.744" gorn="0.1.18" cx="47.232" id="connector9pad" r="1.512"/>
      <path stroke="white" stroke-width="0.72" fill="white" d="m47.232,0a1.872,1.872,0,0,1,1.872,1.872l0,3.744a1.872,1.872,0,0,1,-1.872,1.872l0,0a1.872,1.872,0,0,1,-1.872,-1.872l0,-3.744a1.872,1.872,0,0,1,1.872,-1.872l0,0zM46.08,3.744a1.152,1.152,0,1,0,2.304,0,1.152,1.152,0,1,0,-2.304,0z"/>
      <circle stroke="white" connectorname="11" stroke-width="1.44" fill="white" cy="3.744" gorn="0.1.20" cx="40.032" id="connector10pad" r="1.512"/>
      <path stroke="white" stroke-width="0.72" fill="white" d="m40.032,0a1.872,1.872,0,0,1,1.872,1.872l0,3.744a1.872,1.872,0,0,1,-1.872,1.872l0,0a1.872,1.872,0,0,1,-1.872,-1.872l0,-3.744a1.872,1.872,0,0,1,1.872,-1.872l0,0zM38.88,3.744a1.152,1.152,0,1,0,2.304,0,1.152,1.152,0,1,0,-2.304,0z"/>
      <circle stroke="white" connectorname="12" stroke-width="1.44" fill="white" cy="3.744" gorn="0.1.22" cx="32.832" id="connector11pad" r="1.512"/>
      <path stroke="white" stroke-width="0.72" fill="white" d="m32.832,0a1.872,1.872,0,0,1,1.872,1.872l0,3.744a1.872,1.872,0,0,1,-1.872,1.872l0,0a1.872,1.872,0,0,1,-1.872,-1.872l0,-3.744a1.872,1.872,0,0,1,1.872,-1.872l0,0zM31.68,3.744a1.152,1.152,0,1,0,2.304,0,1.152,1.152,0,1,0,-2.304,0z"/>
      <circle stroke="white" connectorname="13" stroke-width="1.44" fill="white" cy="3.744" gorn="0.1.24" cx="25.632" id="connector12pad" r="1.512"/>
      <path stroke="white" stroke-width="0.72" fill="white" d="m25.632,0a1.872,1.872,0,0,1,1.872,1.872l0,3.744a1.872,1.872,0,0,1,-1.872,1.872l0,0a1.872,1.872,0,0,1,-1.872,-1.872l0,-3.744a1.872,1.872,0,0,1,1.872,-1.872l0,0zM24.48,3.744a1.152,1.152,0,1,0,2.304,0,1.152,1.152,0,1,0,-2.304,0z"/>
      <circle stroke="white" connectorname="14" stroke-width="1.44" fill="white" cy="3.744" gorn="0.1.26" cx="18.432" id="connector13pad" r="1.512"/>
      <path stroke="white" stroke-width="0.72" fill="white" d="m18.432,0a1.872,1.872,0,0,1,1.872,1.872l0,3.744a1.872,1.872,0,0,1,-1.872,1.872l0,0a1.872,1.872,0,0,1,-1.872,-1.872l0,-3.744a1.872,1.872,0,0,1,1.872,-1.872l0,0zM17.28,3.744a1.152,1.152,0,1,0,2.304,0,1.152,1.152,0,1,0,-2.304,0z"/>
      <circle stroke="white" connectorname="15" stroke-width="1.44" fill="white" cy="3.744" gorn="0.1.28" cx="11.232" id="connector14pad" r="1.512"/>
      <path stroke="white" stroke-width="0.72" fill="white" d="m11.232,0a1.872,1.872,0,0,1,1.872,1.872l0,3.744a1.872,1.872,0,0,1,-1.872,1.872l0,0a1.872,1.872,0,0,1,-1.872,-1.872l0,-3.744a1.872,1.872,0,0,1,1.872,-1.872l0,0zM10.08,3.744a1.152,1.152,0,1,0,2.304,0,1.152,1.152,0,1,0,-2.304,0z"/>
      <circle stroke="white" connectorname="16" stroke-width="1.44" fill="white" cy="3.744" gorn="0.1.30" cx="4.032" id="connector15pad" r="1.512"/>
      <path stroke="white" stroke-width="0.72" fill="white" d="m4.032,0a1.872,1.872,0,0,1,1.872,1.872l0,3.744a1.872,1.872,0,0,1,-1.872,1.872l0,0a1.872,1.872,0,0,1,-1.872,-1.872l0,-3.744a1.872,1.872,0,0,1,1.872,-1.872l0,0zM2.88,3.744a1.152,1.152,0,1,0,2.304,0,1.152,1.152,0,1,0,-2.304,0z"/>
      <g gorn="0.1.32" id="copper0">
       <circle stroke="white" connectorname="1" stroke-width="1.44" fill="white" cy="25.344" gorn="0.1.32.0" cx="4.032" id="connector0pad" r="1.512"/>
       <path stroke="white" stroke-width="0.72" fill="white" d="m4.032,21.6a1.872,1.872,0,0,1,1.872,1.872l0,3.744a1.872,1.872,0,0,1,-1.872,1.872l0,0a1.872,1.872,0,0,1,-1.872,-1.872l0,-3.744a1.872,1.872,0,0,1,1.872,-1.872l0,0zM2.88,25.344a1.152,1.152,0,1,0,2.304,0,1.152,1.152,0,1,0,-2.304,0z"/>
       <circle stroke="white" connectorname="2" stroke-width="1.44" fill="white" cy="25.344" gorn="0.1.32.2" cx="11.232" id="connector1pad" r="1.512"/>
       <path stroke="white" stroke-width="0.72" fill="white" d="m11.232,21.6a1.872,1.872,0,0,1,1.872,1.872l0,3.744a1.872,1.872,0,0,1,-1.872,1.872l0,0a1.872,1.872,0,0,1,-1.872,-1.872l0,-3.744a1.872,1.872,0,0,1,1.872,-1.872l0,0zM10.08,25.344a1.152,1.152,0,1,0,2.304,0,1.152,1.152,0,1,0,-2.304,0z"/>
       <circle stroke="white" connectorname="3" stroke-width="1.44" fill="white" cy="25.344" gorn="0.1.32.4" cx="18.432" id="connector2pad" r="1.512"/>
       <path stroke="white" stroke-width="0.72" fill="white" d="m18.432,21.6a1.872,1.872,0,0,1,1.872,1.872l0,3.744a1.872,1.872,0,0,1,-1.872,1.872l0,0a1.872,1.872,0,0,1,-1.872,-1.872l0,-3.744a1.872,1.872,0,0,1,1.872,-1.872l0,0zM17.28,25.344a1.152,1.152,0,1,0,2.304,0,1.152,1.152,0,1,0,-2.304,0z"/>
       <circle stroke="white" connectorname="4" stroke-width="1.44" fill="white" cy="25.344" gorn="0.1.32.6" cx="25.632" id="connector3pad" r="1.512"/>
       <path stroke="white" stroke-width="0.72" fill="white" d="m25.632,21.6a1.872,1.872,0,0,1,1.872,1.872l0,3.744a1.872,1.872,0,0,1,-1.872,1.872l0,0a1.872,1.872,0,0,1,-1.872,-1.872l0,-3.744a1.872,1.872,0,0,1,1.872,-1.872l0,0zM24.48,25.344a1.152,1.152,0,1,0,2.304,0,1.152,1.152,0,1,0,-2.304,0z"/>
       <circle stroke="white" connectorname="5" stroke-width="1.44" fill="white" cy="25.344" gorn="0.1.32.8" cx="32.832" id="connector4pad" r="1.512"/>
       <path stroke="white" stroke-width="0.72" fill="white" d="m32.832,21.6a1.872,1.872,0,0,1,1.872,1.872l0,3.744a1.872,1.872,0,0,1,-1.872,1.872l0,0a1.872,1.872,0,0,1,-1.872,-1.872l0,-3.744a1.872,1.872,0,0,1,1.872,-1.872l0,0zM31.68,25.344a1.152,1.152,0,1,0,2.304,0,1.152,1.152,0,1,0,-2.304,0z"/>
       <circle stroke="white" connectorname="6" stroke-width="1.44" fill="white" cy="25.344" gorn="0.1.32.10" cx="40.032" id="connector5pad" r="1.512"/>
       <path stroke="white" stroke-width="0.72" fill="white" d="m40.032,21.6a1.872,1.872,0,0,1,1.872,1.872l0,3.744a1.872,1.872,0,0,1,-1.872,1.872l0,0a1.872,1.872,0,0,1,-1.872,-1.872l0,-3.744a1.872,1.872,0,0,1,1.872,-1.872l0,0zM38.88,25.344a1.152,1.152,0,1,0,2.304,0,1.152,1.152,0,1,0,-2.304,0z"/>
       <circle stroke="white" connectorname="7" stroke-width="1.44" fill="white" cy="25.344" gorn="0.1.32.12" cx="47.232" id="connector6pad" r="1.512"/>
       <path stroke="white" stroke-width="0.72" fill="white" d="m47.232,21.6a1.872,1.872,0,0,1,1.872,1.872l0,3.744a1.872,1.872,0,0,1,-1.872,1.872l0,0a1.872,1.872,0,0,1,-1.872,-1.872l0,-3.744a1.872,1.872,0,0,1,1.872,-1.872l0,0zM46.08,25.344a1.152,1.152,0,1,0,2.304,0,1.152,1.152,0,1,0,-2.304,0z"/>
       <circle stroke="white" connectorname="8" stroke-width="1.44" fill="white" cy="25.344" gorn="0.1.32.14" cx="54.432" id="connector7pad" r="1.512"/>
       <path stroke="white" stroke-width="0.72" fill="white" d="m54.432,21.6a1.872,1.872,0,0,1,1.872,1.872l0,3.744a1.872,1.872,0,0,1,-1.872,1.872l0,0a1.872,1.872,0,0,1,-1.872,-1.872l0,-3.744a1.872,1.872,0,0,1,1.872,-1.872l0,0zM53.28,25.344a1.152,1.152,0,1,0,2.304,0,1.152,1.152,0,1,0,-2.304,0z"/>
       <circle stroke="white" connectorname="9" stroke-width="1.44" fill="white" cy="3.744" gorn="0.1.32.16" cx="54.432" id="connector8pad" r="1.512"/>
       <path stroke="white" stroke-width="0.72" fill="white" d="m54.432,0a1.872,1.872,0,0,1,1.872,1.872l0,3.744a1.872,1.872,0,0,1,-1.872,1.872l0,0a1.872,1.872,0,0,1,-1.872,-1.872l0,-3.744a1.872,1.872,0,0,1,1.872,-1.872l0,0zM53.28,3.744a1.152,1.152,0,1,0,2.304,0,1.152,1.152,0,1,0,-2.304,0z"/>
       <circle stroke="white" connectorname="10" stroke-width="1.44" fill="white" cy="3.744" gorn="0.1.32.18" cx="47.232" id="connector9pad" r="1.512"/>
       <path stroke="white" stroke-width="0.72" fill="white" d="m47.232,0a1.872,1.872,0,0,1,1.872,1.872l0,3.744a1.872,1.872,0,0,1,-1.872,1.872l0,0a1.872,1.872,0,0,1,-1.872,-1.872l0,-3.744a1.872,1.872,0,0,1,1.872,-1.872l0,0zM46.08,3.744a1.152,1.152,0,1,0,2.304,0,1.152,1.152,0,1,0,-2.304,0z"/>
       <circle stroke="white" connectorname="11" stroke-width="1.44" fill="white" cy="3.744" gorn="0.1.32.20" cx="40.032" id="connector10pad" r="1.512"/>
       <path stroke="white" stroke-width="0.72" fill="white" d="m40.032,0a1.872,1.872,0,0,1,1.872,1.872l0,3.744a1.872,1.872,0,0,1,-1.872,1.872l0,0a1.872,1.872,0,0,1,-1.872,-1.872l0,-3.744a1.872,1.872,0,0,1,1.872,-1.872l0,0zM38.88,3.744a1.152,1.152,0,1,0,2.304,0,1.152,1.152,0,1,0,-2.304,0z"/>
       <circle stroke="white" connectorname="12" stroke-width="1.44" fill="white" cy="3.744" gorn="0.1.32.22" cx="32.832" id="connector11pad" r="1.512"/>
       <path stroke="white" stroke-width="0.72" fill="white" d="m32.832,0a1.872,1.872,0,0,1,1.872,1.872l0,3.744a1.872,1.872,0,0,1,-1.872,1.872l0,0a1.872,1.872,0,0,1,-1.872,-1.872l0,-3.744a1.872,1.872,0,0,1,1.872,-1.872l0,0zM31.68,3.744a1.152,1.152,0,1,0,2.304,0,1.152,1.152,0,1,0,-2.304,0z"/>
       <circle stroke="white" connectorname="13" stroke-width="1.44" fill="white" cy="3.744" gorn="0.1.32.24" cx="25.632" id="connector12pad" r="1.512"/>
       <path stroke="white" stroke-width="0.72" fill="white" d="m25.632,0a1.872,1.872,0,0,1,1.872,1.872l0,3.744a1.872,1.872,0,0,1,-1.872,1.872l0,0a1.872,1.872,0,0,1,-1.872,-1.872l0,-3.744a1.872,1.872,0,0,1,1.872,-1.872l0,0zM24.48,3.744a1.152,1.152,0,1,0,2.304,0,1.152,1.152,0,1,0,-2.304,0z"/>
       <circle stroke="white" connectorname="14" stroke-width="1.44" fill="white" cy="3.744" gorn="0.1.32.26" cx="18.432" id="connector13pad" r="1.512"/>
       <path stroke="white" stroke-width="0.72" fill="white" d="m18.432,0a1.872,1.872,0,0,1,1.872,1.872l0,3.744a1.872,1.872,0,0,1,-1.872,1.872l0,0a1.872,1.872,0,0,1,-1.872,-1.872l0,-3.744a1.872,1.872,0,0,1,1.872,-1.872l0,0zM17.28,3.744a1.152,1.152,0,1,0,2.304,0,1.152,1.152,0,1,0,-2.304,0z"/>
       <circle stroke="white" connectorname="15" stroke-width="1.44" fill="white" cy="3.744" gorn="0.1.32.28" cx="11.232" id="connector14pad" r="1.512"/>
       <path stroke="white" stroke-width="0.72" fill="white" d="m11.232,0a1.872,1.872,0,0,1,1.872,1.872l0,3.744a1.872,1.872,0,0,1,-1.872,1.872l0,0a1.872,1.872,0,0,1,-1.872,-1.872l0,-3.744a1.872,1.872,0,0,1,1.872,-1.872l0,0zM10.08,3.744a1.152,1.152,0,1,0,2.304,0,1.152,1.152,0,1,0,-2.304,0z"/>
       <circle stroke="white" connectorname="16" stroke-width="1.44" fill="white" cy="3.744" gorn="0.1.32.30" cx="4.032" id="connector15pad" r="1.512"/>
       <path stroke="white" stroke-width="0.72" fill="white" d="m4.032,0a1.872,1.872,0,0,1,1.872,1.872l0,3.744a1.872,1.872,0,0,1,-1.872,1.872l0,0a1.872,1.872,0,0,1,-1.872,-1.872l0,-3.744a1.872,1.872,0,0,1,1.872,-1.872l0,0zM2.88,3.744a1.152,1.152,0,1,0,2.304,0,1.152,1.152,0,1,0,-2.304,0z"/>
      </g>
     </g>
    </g>
   </g>
  </g>
  <g partID="854657221">
   <g transform="translate(75.7519,42.1459)">
    <g gorn="0.2" id="copper1">
     <g gorn="0.2.0" id="copper0">
      <rect width="4.176" stroke="white" stroke-width="2.16" fill="white" y="2.952" height="4.176" x="2.952" gorn="0.2.0.0" id="square"/>
      <circle stroke="white" stroke-width="2.16" fill="white" cy="5.04" gorn="0.2.0.1" cx="5.04" id="connector0pin" r="2.088"/>
      <circle stroke="white" stroke-width="2.16" fill="white" cy="12.24" gorn="0.2.0.2" cx="5.04" id="connector1pin" r="2.088"/>
      <circle stroke="white" stroke-width="2.16" fill="white" cy="19.44" gorn="0.2.0.3" cx="5.04" id="connector2pin" r="2.088"/>
      <circle stroke="white" stroke-width="2.16" fill="white" cy="26.64" gorn="0.2.0.4" cx="5.04" id="connector3pin" r="2.088"/>
      <circle stroke="white" stroke-width="2.16" fill="white" cy="33.84" gorn="0.2.0.5" cx="5.04" id="connector4pin" r="2.088"/>
      <circle stroke="white" stroke-width="2.16" fill="white" cy="41.04" gorn="0.2.0.6" cx="5.04" id="connector5pin" r="2.088"/>
     </g>
    </g>
   </g>
  </g>
  <g partID="854658171">
   <g transform="translate(3.75189,45.0259)">
    <g transform="matrix(0,-1,1,0,0,0)">
     <g gorn="0.2" id="copper1">
      <g gorn="0.2.0" id="copper0">
       <rect width="4.176" stroke="white" stroke-width="2.16" fill="white" y="2.952" height="4.176" x="2.952" gorn="0.2.0.0" id="square"/>
       <circle stroke="white" stroke-width="2.16" fill="white" cy="5.04" gorn="0.2.0.1" cx="5.04" id="connector0pin" r="2.088"/>
       <circle stroke="white" stroke-width="2.16" fill="white" cy="12.24" gorn="0.2.0.2" cx="5.04" id="connector1pin" r="2.088"/>
       <circle stroke="white" stroke-width="2.16" fill="white" cy="19.44" gorn="0.2.0.3" cx="5.04" id="connector2pin" r="2.088"/>
      </g>
     </g>
    </g>
   </g>
  </g>
  <g partID="854658271">
   <g transform="translate(3.75189,59.4259)">
    <g transform="matrix(0,-1,1,0,0,0)">
     <g gorn="0.2" id="copper1">
      <g gorn="0.2.0" id="copper0">
       <rect width="4.176" stroke="white" stroke-width="2.16" fill="white" y="2.952" height="4.176" x="2.952" gorn="0.2.0.0" id="square"/>
       <circle stroke="white" stroke-width="2.16" fill="white" cy="5.04" gorn="0.2.0.1" cx="5.04" id="connector0pin" r="2.088"/>
       <circle stroke="white" stroke-width="2.16" fill="white" cy="12.24" gorn="0.2.0.2" cx="5.04" id="connector1pin" r="2.088"/>
       <circle stroke="white" stroke-width="2.16" fill="white" cy="19.44" gorn="0.2.0.3" cx="5.04" id="connector2pin" r="2.088"/>
      </g>
     </g>
    </g>
   </g>
  </g>
  <g partID="854658301">
   <g transform="translate(3.75189,73.8259)">
    <g transform="matrix(0,-1,1,0,0,0)">
     <g gorn="0.2" id="copper1">
      <g gorn="0.2.0" id="copper0">
       <rect width="4.176" stroke="white" stroke-width="2.16" fill="white" y="2.952" height="4.176" x="2.952" gorn="0.2.0.0" id="square"/>
       <circle stroke="white" stroke-width="2.16" fill="white" cy="5.04" gorn="0.2.0.1" cx="5.04" id="connector0pin" r="2.088"/>
       <circle stroke="white" stroke-width="2.16" fill="white" cy="12.24" gorn="0.2.0.2" cx="5.04" id="connector1pin" r="2.088"/>
       <circle stroke="white" stroke-width="2.16" fill="white" cy="19.44" gorn="0.2.0.3" cx="5.04" id="connector2pin" r="2.088"/>
      </g>
     </g>
    </g>
   </g>
  </g>
  <g partID="854658331">
   <g transform="translate(3.75189,88.2259)">
    <g transform="matrix(0,-1,1,0,0,0)">
     <g gorn="0.2" id="copper1">
      <g gorn="0.2.0" id="copper0">
       <rect width="4.176" stroke="white" stroke-width="2.16" fill="white" y="2.952" height="4.176" x="2.952" gorn="0.2.0.0" id="square"/>
       <circle stroke="white" stroke-width="2.16" fill="white" cy="5.04" gorn="0.2.0.1" cx="5.04" id="connector0pin" r="2.088"/>
       <circle stroke="white" stroke-width="2.16" fill="white" cy="12.24" gorn="0.2.0.2" cx="5.04" id="connector1pin" r="2.088"/>
       <circle stroke="white" stroke-width="2.16" fill="white" cy="19.44" gorn="0.2.0.3" cx="5.04" id="connector2pin" r="2.088"/>
      </g>
     </g>
    </g>
   </g>
  </g>
  <g partID="854658361">
   <g transform="translate(3.75189,102.626)">
    <g transform="matrix(0,-1,1,0,0,0)">
     <g gorn="0.2" id="copper1">
      <g gorn="0.2.0" id="copper0">
       <rect width="4.176" stroke="white" stroke-width="2.16" fill="white" y="2.952" height="4.176" x="2.952" gorn="0.2.0.0" id="square"/>
       <circle stroke="white" stroke-width="2.16" fill="white" cy="5.04" gorn="0.2.0.1" cx="5.04" id="connector0pin" r="2.088"/>
       <circle stroke="white" stroke-width="2.16" fill="white" cy="12.24" gorn="0.2.0.2" cx="5.04" id="connector1pin" r="2.088"/>
       <circle stroke="white" stroke-width="2.16" fill="white" cy="19.44" gorn="0.2.0.3" cx="5.04" id="connector2pin" r="2.088"/>
      </g>
     </g>
    </g>
   </g>
  </g>
  <g partID="854658391">
   <g transform="translate(3.75189,30.6259)">
    <g transform="matrix(0,-1,1,0,0,0)">
     <g gorn="0.2" id="copper1">
      <g gorn="0.2.0" id="copper0">
       <rect width="4.176" stroke="white" stroke-width="2.16" fill="white" y="2.952" height="4.176" x="2.952" gorn="0.2.0.0" id="square"/>
       <circle stroke="white" stroke-width="2.16" fill="white" cy="5.04" gorn="0.2.0.1" cx="5.04" id="connector0pin" r="2.088"/>
       <circle stroke="white" stroke-width="2.16" fill="white" cy="12.24" gorn="0.2.0.2" cx="5.04" id="connector1pin" r="2.088"/>
       <circle stroke="white" stroke-width="2.16" fill="white" cy="19.44" gorn="0.2.0.3" cx="5.04" id="connector2pin" r="2.088"/>
      </g>
     </g>
    </g>
   </g>
  </g>
  <g partID="854658421">
   <g transform="translate(3.75189,117.026)">
    <g transform="matrix(0,-1,1,0,0,0)">
     <g gorn="0.2" id="copper1">
      <g gorn="0.2.0" id="copper0">
       <rect width="4.176" stroke="white" stroke-width="2.16" fill="white" y="2.952" height="4.176" x="2.952" gorn="0.2.0.0" id="square"/>
       <circle stroke="white" stroke-width="2.16" fill="white" cy="5.04" gorn="0.2.0.1" cx="5.04" id="connector0pin" r="2.088"/>
       <circle stroke="white" stroke-width="2.16" fill="white" cy="12.24" gorn="0.2.0.2" cx="5.04" id="connector1pin" r="2.088"/>
       <circle stroke="white" stroke-width="2.16" fill="white" cy="19.44" gorn="0.2.0.3" cx="5.04" id="connector2pin" r="2.088"/>
      </g>
     </g>
    </g>
   </g>
  </g>
  <g partID="854658451">
   <g transform="translate(3.75189,16.2259)">
    <g transform="matrix(0,-1,1,0,0,0)">
     <g gorn="0.2" id="copper1">
      <g gorn="0.2.0" id="copper0">
       <rect width="4.176" stroke="white" stroke-width="2.16" fill="white" y="2.952" height="4.176" x="2.952" gorn="0.2.0.0" id="square"/>
       <circle stroke="white" stroke-width="2.16" fill="white" cy="5.04" gorn="0.2.0.1" cx="5.04" id="connector0pin" r="2.088"/>
       <circle stroke="white" stroke-width="2.16" fill="white" cy="12.24" gorn="0.2.0.2" cx="5.04" id="connector1pin" r="2.088"/>
       <circle stroke="white" stroke-width="2.16" fill="white" cy="19.44" gorn="0.2.0.3" cx="5.04" id="connector2pin" r="2.088"/>
      </g>
     </g>
    </g>
   </g>
  </g>
 </g>
</svg>
